<svg xmlns="http://www.w3.org/2000/svg" width="1451" height="242" viewBox="0 0 1451 242"><path fill-rule="evenodd" fill="#FFF" d="m1398.15 140.193 52.75 100.256h-85.46l-42.08-86.774h-28.28v86.774h-76.18V.951h145.13c17 0 31.54 3.306 43.6 9.922 12.07 6.611 21.15 15.552 27.24 26.804 6.08 11.257 9.13 23.497 9.13 36.726 0 14.619-3.91 27.846-11.72 39.684-7.81 11.833-19.19 20.537-34.13 26.106Zm-38.65-77.558c-4.09-4.098-9.09-6.148-15-6.148h-49.42v43.388h49.42c5.91 0 10.91-2.105 15-6.322 4.09-4.211 6.13-9.394 6.13-15.544s-2.04-11.274-6.13-15.374Zm-284.96 177.814H971.917V2.689h102.623c82.88 0 124.32 39.628 124.32 118.88 0 79.254-41.44 118.88-124.32 118.88Zm48.01-130.945c0-34.185-15.9-51.279-47.68-51.279h-25.04V181.44h25.04c31.78 0 47.68-17.086 47.68-51.282v-20.654Zm-339.716 15.519v115.426h-70.988V2.689h67.249l100.698 117.152V2.689h70.988v237.76h-67.25L782.834 125.023ZM494.298 1.918h76.182v176.051h121.198v62.48h-197.38V1.918ZM382.723 240.643h-76.182v-94.381L213.658 1.72h86.419l44.91 79.063h1.361L391.259 1.72h84.191l-92.727 145.396v93.527ZM161.512 92.648c-9.059-13.148-24.175-21.781-41.321-21.781-28.794 0-51.927 24.293-50.114 53.545 1.592 25.707 22.933 46.349 48.618 47.098 18.198.53 34.272-8.666 43.492-22.769h74.999c-12.432 53.266-60.064 92.953-116.995 92.953-67.045 0-121.269-55.015-120.197-122.462C1.007 55.55 52.213 3.098 115.712.789c58.533-2.135 108.099 37.717 121.232 91.859h-75.432Z"/></svg>